<svg width="32" height="32" viewBox="0 0 32 32" fill="none" xmlns="http://www.w3.org/2000/svg">
<path d="M14.6667 5.33343H5.33333C4.62609 5.33343 3.94781 5.61438 3.44772 6.11448C2.94762 6.61458 2.66667 7.29286 2.66667 8.0001V26.6668C2.66667 27.374 2.94762 28.0523 3.44772 28.5524C3.94781 29.0525 4.62609 29.3334 5.33333 29.3334H24C24.7072 29.3334 25.3855 29.0525 25.8856 28.5524C26.3857 28.0523 26.6667 27.374 26.6667 26.6668V17.3334M24.6667 3.33343C25.1971 2.803 25.9165 2.505 26.6667 2.505C27.4168 2.505 28.1362 2.803 28.6667 3.33343C29.1971 3.86387 29.4951 4.58329 29.4951 5.33343C29.4951 6.08358 29.1971 6.803 28.6667 7.33343L16 20.0001L10.6667 21.3334L12 16.0001L24.6667 3.33343Z" stroke="#5A28FF" stroke-width="3" stroke-linecap="round" stroke-linejoin="round"/>
</svg>